  0
SECTION
  2
HEADER
  9
$ACADVER
  1
AC1009
  9
$INSBASE
 10
0.0
 20
0.0
 30
0.0
  9
$EXTMIN
 10
-707.2950308501948484
 20
-0.0222369105904363
 30
-0.0015258207003583
  9
$EXTMAX
 10
707.3436968008918484
 20
1000.0569726865139728
 30
0.0000000349246037
  9
$LIMMIN
 10
0.0
 20
0.0
  9
$LIMMAX
 10
420.0
 20
297.0
  9
$ORTHOMODE
 70
     0
  9
$REGENMODE
 70
     1
  9
$FILLMODE
 70
     1
  9
$QTEXTMODE
 70
     0
  9
$MIRRTEXT
 70
     0
  9
$DRAGMODE
 70
     2
  9
$LTSCALE
 40
1.0
  9
$OSMODE
 70
     1
  9
$ATTMODE
 70
     1
  9
$TEXTSIZE
 40
2.5
  9
$TRACEWID
 40
1.0
  9
$TEXTSTYLE
  7
STANDARD
  9
$CLAYER
  8
0
  9
$CELTYPE
  6
BYLAYER
  9
$CECOLOR
 62
   256
  9
$DIMSCALE
 40
1.0
  9
$DIMASZ
 40
2.5
  9
$DIMEXO
 40
0.625
  9
$DIMDLI
 40
3.75
  9
$DIMRND
 40
0.0
  9
$DIMDLE
 40
0.0
  9
$DIMEXE
 40
1.25
  9
$DIMTP
 40
0.0
  9
$DIMTM
 40
0.0
  9
$DIMTXT
 40
2.5
  9
$DIMCEN
 40
2.5
  9
$DIMTSZ
 40
0.0
  9
$DIMTOL
 70
     0
  9
$DIMLIM
 70
     0
  9
$DIMTIH
 70
     0
  9
$DIMTOH
 70
     0
  9
$DIMSE1
 70
     0
  9
$DIMSE2
 70
     0
  9
$DIMTAD
 70
     1
  9
$DIMZIN
 70
     8
  9
$DIMBLK
  1

  9
$DIMASO
 70
     1
  9
$DIMSHO
 70
     1
  9
$DIMPOST
  1

  9
$DIMAPOST
  1

  9
$DIMALT
 70
     0
  9
$DIMALTD
 70
     3
  9
$DIMALTF
 40
0.03937007874016
  9
$DIMLFAC
 40
1.0
  9
$DIMTOFL
 70
     1
  9
$DIMTVP
 40
0.0
  9
$DIMTIX
 70
     0
  9
$DIMSOXD
 70
     0
  9
$DIMSAH
 70
     0
  9
$DIMBLK1
  1

  9
$DIMBLK2
  1

  9
$DIMSTYLE
  2
ISO-25
  9
$DIMCLRD
 70
     0
  9
$DIMCLRE
 70
     0
  9
$DIMCLRT
 70
     0
  9
$DIMTFAC
 40
1.0
  9
$DIMGAP
 40
0.625
  9
$LUNITS
 70
     2
  9
$LUPREC
 70
     4
  9
$SKETCHINC
 40
1.0
  9
$FILLETRAD
 40
0.0
  9
$AUNITS
 70
     0
  9
$AUPREC
 70
     0
  9
$MENU
  1
.
  9
$ELEVATION
 40
0.0
  9
$PELEVATION
 40
0.0
  9
$THICKNESS
 40
0.0
  9
$LIMCHECK
 70
     0
  9
$BLIPMODE
 70
     0
  9
$CHAMFERA
 40
0.0
  9
$CHAMFERB
 40
0.0
  9
$SKPOLY
 70
     0
  9
$TDCREATE
 40
2460150.9416319439187646
  9
$TDUPDATE
 40
2460150.9810416670516133
  9
$TDINDWG
 40
0.0394097222
  9
$TDUSRTIMER
 40
0.0394097222
  9
$USRTIMER
 70
     1
  9
$ANGBASE
 50
0.0
  9
$ANGDIR
 70
     0
  9
$PDMODE
 70
     0
  9
$PDSIZE
 40
0.0
  9
$PLINEWID
 40
0.0
  9
$COORDS
 70
     1
  9
$SPLFRAME
 70
     0
  9
$SPLINETYPE
 70
     6
  9
$SPLINESEGS
 70
     8
  9
$ATTDIA
 70
     1
  9
$ATTREQ
 70
     1
  9
$HANDLING
 70
     1
  9
$HANDSEED
  5
4E1
  9
$SURFTAB1
 70
     6
  9
$SURFTAB2
 70
     6
  9
$SURFTYPE
 70
     6
  9
$SURFU
 70
     6
  9
$SURFV
 70
     6
  9
$UCSNAME
  2

  9
$UCSORG
 10
0.0
 20
0.0
 30
0.0
  9
$UCSXDIR
 10
1.0
 20
0.0
 30
0.0
  9
$UCSYDIR
 10
0.0
 20
1.0
 30
0.0
  9
$PUCSNAME
  2

  9
$PUCSORG
 10
0.0
 20
0.0
 30
0.0
  9
$PUCSXDIR
 10
1.0
 20
0.0
 30
0.0
  9
$PUCSYDIR
 10
0.0
 20
1.0
 30
0.0
  9
$USERI1
 70
     0
  9
$USERI2
 70
     0
  9
$USERI3
 70
     0
  9
$USERI4
 70
     0
  9
$USERI5
 70
     0
  9
$USERR1
 40
0.0
  9
$USERR2
 40
0.0
  9
$USERR3
 40
0.0
  9
$USERR4
 40
0.0
  9
$USERR5
 40
0.0
  9
$WORLDVIEW
 70
     1
  9
$SHADEDGE
 70
     3
  9
$SHADEDIF
 70
    70
  9
$TILEMODE
 70
     1
  9
$MAXACTVP
 70
    64
  9
$PLIMCHECK
 70
     0
  9
$PEXTMIN
 10
0.0
 20
0.0
 30
0.0
  9
$PEXTMAX
 10
0.0
 20
0.0
 30
0.0
  9
$PLIMMIN
 10
0.0
 20
0.0
  9
$PLIMMAX
 10
12.0
 20
9.0
  9
$UNITMODE
 70
     0
  9
$VISRETAIN
 70
     1
  9
$PLINEGEN
 70
     0
  9
$PSLTSCALE
 70
     1
  0
ENDSEC
  0
SECTION
  2
TABLES
  0
TABLE
  2
VPORT
 70
     1
  0
VPORT
  2
*ACTIVE
 70
     0
 10
0.0
 20
0.0
 11
1.0
 21
1.0
 12
254.5368550385555864
 22
420.7669045925773048
 13
0.0
 23
0.0
 14
10.0
 24
10.0
 15
10.0
 25
10.0
 16
0.0
 26
0.0
 36
1.0
 17
0.0
 27
0.0
 37
0.0
 40
1612.5428423744149313
 41
2.6323731138545949
 42
50.0
 43
0.0
 44
0.0
 50
0.0
 51
0.0
 71
     0
 72
  1000
 73
     1
 74
     3
 75
     0
 76
     1
 77
     0
 78
     0
  0
ENDTAB
  0
TABLE
  2
LTYPE
 70
     2
  0
LTYPE
  2
CONTINUOUS
 70
     0
  3
Solid line
 72
    65
 73
     0
 40
0.0
  0
ENDTAB
  0
TABLE
  2
LAYER
 70
     1
  0
LAYER
  2
0
 70
     0
 62
     7
  6
CONTINUOUS
  0
ENDTAB
  0
TABLE
  2
STYLE
 70
     2
  0
STYLE
  2
STANDARD
 70
     0
 40
0.0
 41
1.0
 50
0.0
 71
     0
 42
2.5
  3
txt
  4

  0
STYLE
  2
ANNOTATIVE
 70
     0
 40
0.0
 41
1.0
 50
0.0
 71
     0
 42
2.5
  3
txt
  4

  0
ENDTAB
  0
TABLE
  2
VIEW
 70
     0
  0
ENDTAB
  0
TABLE
  2
UCS
 70
     0
  0
ENDTAB
  0
TABLE
  2
APPID
 70
     9
  0
APPID
  2
ACAD
 70
     0
  0
APPID
  2
ACAD_PSEXT
 70
     0
  0
APPID
  2
ACADANNOPO
 70
     0
  0
APPID
  2
ACADANNOTATIVE
 70
     0
  0
APPID
  2
ACAD_DSTYLE_DIMJAG
 70
     0
  0
APPID
  2
ACAD_DSTYLE_DIMTALN
 70
     0
  0
APPID
  2
ACAD_MLEADERVER
 70
     0
  0
APPID
  2
ACAD_NAV_VCDISPLAY
 70
     0
  0
APPID
  2
ACAD_EXEMPT_FROM_CAD_STANDARDS
 70
     0
  0
ENDTAB
  0
TABLE
  2
DIMSTYLE
 70
     4
  0
DIMSTYLE
  2
STANDARD
 70
     0
  3

  4

  5

  6

  7

 40
1.0
 41
0.18
 42
0.0625
 43
0.38
 44
0.18
 45
0.0
 46
0.0
 47
0.0
 48
0.0
140
0.18
141
0.09
142
0.0
143
25.3999999999999986
144
1.0
145
0.0
146
1.0
147
0.09
 71
     0
 72
     0
 73
     1
 74
     1
 75
     0
 76
     0
 77
     0
 78
     0
170
     0
171
     2
172
     0
173
     0
174
     0
175
     0
176
     0
177
     0
178
     0
  0
DIMSTYLE
  2
ANNOTATIVE
 70
     0
  3

  4

  5

  6

  7

 40
0.0
 41
2.5
 42
0.625
 43
3.75
 44
1.25
 45
0.0
 46
0.0
 47
0.0
 48
0.0
140
2.5
141
2.5
142
0.0
143
0.03937007874016
144
1.0
145
0.0
146
1.0
147
0.625
 71
     0
 72
     0
 73
     0
 74
     0
 75
     0
 76
     0
 77
     1
 78
     8
170
     0
171
     3
172
     1
173
     0
174
     0
175
     0
176
     0
177
     0
178
     0
  0
DIMSTYLE
  2
ISO-25
 70
     0
  3

  4

  5

  6

  7

 40
1.0
 41
2.5
 42
0.625
 43
3.75
 44
1.25
 45
0.0
 46
0.0
 47
0.0
 48
0.0
140
2.5
141
2.5
142
0.0
143
0.03937007874016
144
1.0
145
0.0
146
1.0
147
0.625
 71
     0
 72
     0
 73
     0
 74
     0
 75
     0
 76
     0
 77
     1
 78
     8
170
     0
171
     3
172
     1
173
     0
174
     0
175
     0
176
     0
177
     0
178
     0
  0
ENDTAB
  0
ENDSEC
  0
SECTION
  2
BLOCKS
  0
BLOCK
  8
0
  2
$MODEL_SPACE
 70
     0
 10
0.0
 20
0.0
 30
0.0
  3
$MODEL_SPACE
  1

  0
ENDBLK
  5
21
  8
0
  0
BLOCK
 67
     1
  8
0
  2
$PAPER_SPACE
 70
     0
 10
0.0
 20
0.0
 30
0.0
  3
$PAPER_SPACE
  1

  0
ENDBLK
  5
D5
 67
     1
  8
0
  0
ENDSEC
  0
SECTION
  2
ENTITIES
  0
LINE
  5
2A7
  8
0
 10
0.0
 20
1000.0
 30
0.0
 11
-98.017099999999985
 21
995.1847000000000207
 31
0.0
  0
LINE
  5
2A8
  8
0
 10
-98.017099999999985
 20
995.1847000000000207
 30
0.0
 11
-195.0900000000000034
 21
980.7852999999998929
 31
0.0
  0
LINE
  5
2A9
  8
0
 10
-195.0900000000000034
 20
980.7852999999998929
 30
0.0
 11
-290.285000000000025
 21
956.9402999999998656
 31
0.0
  0
LINE
  5
2AA
  8
0
 10
-290.285000000000025
 20
956.9402999999998656
 30
0.0
 11
-382.6830000000001064
 21
923.8794999999998936
 31
0.0
  0
LINE
  5
2AB
  8
0
 10
-382.6830000000001064
 20
923.8794999999998936
 30
0.0
 11
-471.3969999999998777
 21
881.9212999999998601
 31
0.0
  0
LINE
  5
2AC
  8
0
 10
-471.3969999999998777
 20
881.9212999999998601
 30
0.0
 11
-555.57000000000005
 21
831.4695999999999003
 31
0.0
  0
LINE
  5
2AD
  8
0
 10
-555.57000000000005
 20
831.4695999999999003
 30
0.0
 11
-634.3930000000000291
 21
773.0104999999999791
 31
0.0
  0
LINE
  5
2AE
  8
0
 10
-634.3930000000000291
 20
773.0104999999999791
 30
0.0
 11
-707.1069999999998572
 21
707.1069999999998572
 31
0.0
  0
LINE
  5
2C1
  8
0
 10
0.0
 20
1000.0
 30
0.0
 11
0.0
 21
932.6475000000000364
 31
0.0
  0
LINE
  5
2C2
  8
0
 10
0.0
 20
932.6475000000000364
 30
0.0
 11
0.0
 21
869.6227999999998701
 31
0.0
  0
LINE
  5
2C3
  8
0
 10
0.0
 20
869.6227999999998701
 30
0.0
 11
0.0
 21
810.9261000000000195
 31
0.0
  0
LINE
  5
2C4
  8
0
 10
0.0
 20
810.9261000000000195
 30
0.0
 11
0.0
 21
756.5573000000000548
 31
0.0
  0
LINE
  5
2C5
  8
0
 10
0.0
 20
756.5573000000000548
 30
0.0
 11
-54.033299999999997
 21
720.5027000000000044
 31
0.0
  0
LINE
  5
2C6
  8
0
 10
-54.033299999999997
 20
720.5027000000000044
 30
0.0
 11
-107.632000000000005
 21
681.5359999999999445
 31
0.0
  0
LINE
  5
2C7
  8
0
 10
-107.632000000000005
 20
681.5359999999999445
 30
0.0
 11
-160.8930000000000007
 21
641.4285999999998467
 31
0.0
  0
LINE
  5
2C8
  8
0
 10
-160.8930000000000007
 20
641.4285999999998467
 30
0.0
 11
-213.5579999999999927
 21
599.3166999999998552
 31
0.0
  0
LINE
  5
2C9
  8
0
 10
-213.5579999999999927
 20
599.3166999999998552
 30
0.0
 11
-265.4499999999999886
 21
555.5751999999999953
 31
0.0
  0
LINE
  5
2CA
  8
0
 10
-265.4499999999999886
 20
555.5751999999999953
 30
0.0
 11
-316.7669999999999959
 21
510.6297999999998751
 31
0.0
  0
LINE
  5
2CB
  8
0
 10
-316.7669999999999959
 20
510.6297999999998751
 30
0.0
 11
-366.7090000000000032
 21
463.7199999999999136
 31
0.0
  0
LINE
  5
2CD
  8
0
 10
-366.7090000000000032
 20
463.7199999999999136
 30
0.0
 11
-416.2799999999999159
 21
416.2799999999999159
 31
0.0
  0
LINE
  5
2CE
  8
0
 10
-416.2799999999999159
 20
416.2799999999999159
 30
0.0
 11
-485.7409999999998718
 21
485.7409999999998718
 31
0.0
  0
LINE
  5
2CF
  8
0
 10
-485.7409999999998718
 20
485.7409999999998718
 30
0.0
 11
-557.3659999999999854
 21
557.3655999999998585
 31
0.0
  0
LINE
  5
2D0
  8
0
 10
-557.3659999999999854
 20
557.3655999999998585
 30
0.0
 11
-631.1539999999998827
 21
631.1541999999999462
 31
0.0
  0
LINE
  5
2D1
  8
0
 10
-631.1539999999998827
 20
631.1541999999999462
 30
0.0
 11
-707.1069999999998572
 21
707.1069999999998572
 31
0.0
  0
LINE
  5
2DA
  8
0
 10
-98.017099999999985
 20
995.1847000000000207
 30
0.0
 11
-86.615399999999994
 21
920.4280999999998585
 31
0.0
  0
LINE
  5
2DB
  8
0
 10
-86.615399999999994
 20
920.4280999999998585
 30
0.0
 11
-75.4842000000000013
 21
849.7288999999999533
 31
0.0
  0
LINE
  5
2DC
  8
0
 10
-75.4842000000000013
 20
849.7288999999999533
 30
0.0
 11
-64.623500000000007
 21
783.087099999999964
 31
0.0
  0
LINE
  5
2DD
  8
0
 10
-64.623500000000007
 20
783.087099999999964
 30
0.0
 11
-54.033299999999997
 21
720.5027000000000044
 31
0.0
  0
LINE
  5
2DE
  8
0
 10
-195.0900000000000034
 20
980.7852999999998929
 30
0.0
 11
-172.4139999999999873
 21
900.2925999999999931
 31
0.0
  0
LINE
  5
2DF
  8
0
 10
-172.4139999999999873
 20
900.2925999999999931
 30
0.0
 11
-150.2789999999999964
 21
823.5867999999999256
 31
0.0
  0
LINE
  5
2E0
  8
0
 10
-150.2789999999999964
 20
823.5867999999999256
 30
0.0
 11
-128.6850000000000023
 21
750.6679000000000315
 31
0.0
  0
LINE
  5
2E1
  8
0
 10
-128.6850000000000023
 20
750.6679000000000315
 30
0.0
 11
-107.632000000000005
 21
681.5359999999999445
 31
0.0
  0
LINE
  5
2EB
  8
0
 10
-631.1539999999998827
 20
631.1541999999999462
 30
0.0
 11
-565.6319999999999482
 21
692.0361999999998943
 31
0.0
  0
LINE
  5
2EC
  8
0
 10
-565.6319999999999482
 20
692.0361999999998943
 30
0.0
 11
-493.4350000000000023
 21
747.202199999999948
 31
0.0
  0
LINE
  5
2ED
  8
0
 10
-493.4350000000000023
 20
747.202199999999948
 30
0.0
 11
-417.880999999999915
 21
795.871599999999944
 31
0.0
  0
LINE
  5
2EE
  8
0
 10
-417.880999999999915
 20
795.871599999999944
 30
0.0
 11
-338.7789999999999964
 21
837.8699000000001433
 31
0.0
  0
LINE
  5
2EF
  8
0
 10
-338.7789999999999964
 20
837.8699000000001433
 30
0.0
 11
-256.7189999999999941
 21
872.7877999999999474
 31
0.0
  0
LINE
  5
2F0
  8
0
 10
-256.7189999999999941
 20
872.7877999999999474
 30
0.0
 11
-172.4139999999999873
 21
900.2925999999999931
 31
0.0
  0
LINE
  5
2F1
  8
0
 10
-172.4139999999999873
 20
900.2925999999999931
 30
0.0
 11
-86.615399999999994
 21
920.4280999999998585
 31
0.0
  0
LINE
  5
2F2
  8
0
 10
-86.615399999999994
 20
920.4280999999998585
 30
0.0
 11
0.0
 21
932.6475000000000364
 31
0.0
  0
LINE
  5
2F3
  8
0
 10
-557.3659999999999854
 20
557.3655999999998585
 30
0.0
 11
-496.76400000000001
 21
613.4962999999999056
 31
0.0
  0
LINE
  5
2F4
  8
0
 10
-496.76400000000001
 20
613.4962999999999056
 30
0.0
 11
-432.9229999999998881
 21
665.6398000000000366
 31
0.0
  0
LINE
  5
2F5
  8
0
 10
-432.9229999999998881
 20
665.6398000000000366
 30
0.0
 11
-365.7180000000000177
 21
712.7974000000000387
 31
0.0
  0
LINE
  5
2F6
  8
0
 10
-365.7180000000000177
 20
712.7974000000000387
 30
0.0
 11
-295.9569999999999936
 21
755.1061999999999443
 31
0.0
  0
LINE
  5
2F7
  8
0
 10
-295.9569999999999936
 20
755.1061999999999443
 30
0.0
 11
-223.9660000000000082
 21
792.1516000000000304
 31
0.0
  0
LINE
  5
2F8
  8
0
 10
-223.9660000000000082
 20
792.1516000000000304
 30
0.0
 11
-150.2789999999999964
 21
823.5867999999999256
 31
0.0
  0
LINE
  5
2F9
  8
0
 10
-150.2789999999999964
 20
823.5867999999999256
 30
0.0
 11
-75.4842000000000013
 21
849.7288999999999533
 31
0.0
  0
LINE
  5
2FA
  8
0
 10
-75.4842000000000013
 20
849.7288999999999533
 30
0.0
 11
0.0
 21
869.6227999999998701
 31
0.0
  0
LINE
  5
305
  8
0
 10
-416.2799999999999159
 20
416.2799999999999159
 30
0.0
 11
-366.48599999999999
 21
366.48599999999999
 31
0.0
  0
LINE
  5
306
  8
0
 10
-366.48599999999999
 20
366.48599999999999
 30
0.0
 11
-315.4529999999999745
 21
315.4529999999999745
 31
0.0
  0
LINE
  5
307
  8
0
 10
-315.4529999999999745
 20
315.4529999999999745
 30
0.0
 11
-264.0190000000000055
 21
264.0190000000000055
 31
0.0
  0
LINE
  5
308
  8
0
 10
-264.0190000000000055
 20
264.0190000000000055
 30
0.0
 11
-211.8799999999999955
 21
211.8799999999999955
 31
0.0
  0
LINE
  5
309
  8
0
 10
-211.8799999999999955
 20
211.8799999999999955
 30
0.0
 11
-159.313999999999993
 21
159.313999999999993
 31
0.0
  0
LINE
  5
30A
  8
0
 10
-159.313999999999993
 20
159.313999999999993
 30
0.0
 11
-106.4320000000000022
 21
106.4320000000000022
 31
0.0
  0
LINE
  5
30B
  8
0
 10
-106.4320000000000022
 20
106.4320000000000022
 30
0.0
 11
-53.2554999999999907
 21
53.2554999999999907
 31
0.0
  0
LINE
  5
30C
  8
0
 10
-53.2554999999999907
 20
53.2554999999999907
 30
0.0
 11
0.0
 21
0.0
 31
0.0
  0
LINE
  5
30D
  8
0
 10
-485.7409999999998718
 20
485.7409999999998718
 30
0.0
 11
-430.7900000000000205
 21
537.3908999999999878
 31
0.0
  0
LINE
  5
30E
  8
0
 10
-430.7900000000000205
 20
537.3908999999999878
 30
0.0
 11
-374.0339999999999918
 21
586.7822999999998501
 31
0.0
  0
LINE
  5
30F
  8
0
 10
-374.0339999999999918
 20
586.7822999999998501
 30
0.0
 11
-314.9069999999999823
 21
632.6986000000000558
 31
0.0
  0
LINE
  5
310
  8
0
 10
-314.9069999999999823
 20
632.6986000000000558
 30
0.0
 11
-254.2160000000000082
 21
675.5884999999999536
 31
0.0
  0
LINE
  5
312
  8
0
 10
-254.2160000000000082
 20
675.5884999999999536
 30
0.0
 11
-192.0229999999999961
 21
715.0319999999999254
 31
0.0
  0
LINE
  5
313
  8
0
 10
-192.0229999999999961
 20
715.0319999999999254
 30
0.0
 11
-128.6850000000000023
 21
750.6679000000000315
 31
0.0
  0
LINE
  5
314
  8
0
 10
-128.6850000000000023
 20
750.6679000000000315
 30
0.0
 11
-64.623500000000007
 21
783.087099999999964
 31
0.0
  0
LINE
  5
315
  8
0
 10
-64.623500000000007
 20
783.087099999999964
 30
0.0
 11
0.0
 21
810.9261000000000195
 31
0.0
  0
LINE
  5
316
  8
0
 10
-290.285000000000025
 20
956.9402999999998656
 30
0.0
 11
-256.7189999999999941
 21
872.7877999999999474
 31
0.0
  0
LINE
  5
317
  8
0
 10
-256.7189999999999941
 20
872.7877999999999474
 30
0.0
 11
-223.9660000000000082
 21
792.1516000000000304
 31
0.0
  0
LINE
  5
318
  8
0
 10
-223.9660000000000082
 20
792.1516000000000304
 30
0.0
 11
-192.0229999999999961
 21
715.0319999999999254
 31
0.0
  0
LINE
  5
319
  8
0
 10
-192.0229999999999961
 20
715.0319999999999254
 30
0.0
 11
-160.8930000000000007
 21
641.4285999999998467
 31
0.0
  0
LINE
  5
31A
  8
0
 10
-382.6830000000001064
 20
923.8794999999998936
 30
0.0
 11
-338.7789999999999964
 21
837.8699000000001433
 31
0.0
  0
LINE
  5
31B
  8
0
 10
-338.7789999999999964
 20
837.8699000000001433
 30
0.0
 11
-295.9569999999999936
 21
755.1061999999999443
 31
0.0
  0
LINE
  5
31C
  8
0
 10
-295.9569999999999936
 20
755.1061999999999443
 30
0.0
 11
-254.2160000000000082
 21
675.5884999999999536
 31
0.0
  0
LINE
  5
31D
  8
0
 10
-254.2160000000000082
 20
675.5884999999999536
 30
0.0
 11
-213.5579999999999927
 21
599.3166999999998552
 31
0.0
  0
LINE
  5
31E
  8
0
 10
-265.4499999999999886
 20
555.5751999999999953
 30
0.0
 11
-314.9069999999999823
 21
632.6986000000000558
 31
0.0
  0
LINE
  5
31F
  8
0
 10
-314.9069999999999823
 20
632.6986000000000558
 30
0.0
 11
-365.7180000000000177
 21
712.7974000000000387
 31
0.0
  0
LINE
  5
320
  8
0
 10
-365.7180000000000177
 20
712.7974000000000387
 30
0.0
 11
-417.880999999999915
 21
795.871599999999944
 31
0.0
  0
LINE
  5
321
  8
0
 10
-417.880999999999915
 20
795.871599999999944
 30
0.0
 11
-471.3969999999998777
 21
881.9212999999998601
 31
0.0
  0
LINE
  5
322
  8
0
 10
-555.57000000000005
 20
831.4695999999999003
 30
0.0
 11
-493.4350000000000023
 21
747.202199999999948
 31
0.0
  0
LINE
  5
323
  8
0
 10
-493.4350000000000023
 20
747.202199999999948
 30
0.0
 11
-432.9229999999998881
 21
665.6398000000000366
 31
0.0
  0
LINE
  5
324
  8
0
 10
-432.9229999999998881
 20
665.6398000000000366
 30
0.0
 11
-374.0339999999999918
 21
586.7822999999998501
 31
0.0
  0
LINE
  5
325
  8
0
 10
-374.0339999999999918
 20
586.7822999999998501
 30
0.0
 11
-316.7669999999999959
 21
510.6297999999998751
 31
0.0
  0
LINE
  5
327
  8
0
 10
-634.3930000000000291
 20
773.0104999999999791
 30
0.0
 11
-565.6319999999999482
 21
692.0361999999998943
 31
0.0
  0
LINE
  5
328
  8
0
 10
-565.6319999999999482
 20
692.0361999999998943
 30
0.0
 11
-496.76400000000001
 21
613.4962999999999056
 31
0.0
  0
LINE
  5
329
  8
0
 10
-496.76400000000001
 20
613.4962999999999056
 30
0.0
 11
-430.7900000000000205
 21
537.3908999999999878
 31
0.0
  0
LINE
  5
32A
  8
0
 10
-430.7900000000000205
 20
537.3908999999999878
 30
0.0
 11
-366.7090000000000032
 21
463.7199999999999136
 31
0.0
  0
LINE
  5
32F
  8
0
 10
-211.8799999999999955
 20
211.8799999999999955
 30
0.0
 11
-159.3220000000000027
 21
263.3725000000000023
 31
0.0
  0
LINE
  5
330
  8
0
 10
-159.3220000000000027
 20
263.3725000000000023
 30
0.0
 11
-106.617999999999995
 21
314.5602000000000089
 31
0.0
  0
LINE
  5
331
  8
0
 10
-106.617999999999995
 20
314.5602000000000089
 30
0.0
 11
-53.3733000000000004
 21
364.6186999999999898
 31
0.0
  0
LINE
  5
332
  8
0
 10
-53.3733000000000004
 20
364.6186999999999898
 30
0.0
 11
0.0
 21
413.9173000000000116
 31
0.0
  0
LINE
  5
345
  8
0
 10
-366.48599999999999
 20
366.48599999999999
 30
0.0
 11
-315.9250000000000114
 21
415.1826999999998975
 31
0.0
  0
LINE
  5
346
  8
0
 10
-315.9250000000000114
 20
415.1826999999998975
 30
0.0
 11
-265.0480000000000018
 21
463.4057000000000244
 31
0.0
  0
LINE
  5
347
  8
0
 10
-265.0480000000000018
 20
463.4057000000000244
 30
0.0
 11
-213.0049999999999955
 21
509.8730999999999085
 31
0.0
  0
LINE
  5
348
  8
0
 10
-213.0049999999999955
 20
509.8730999999999085
 30
0.0
 11
-160.5
 21
555.247600000000034
 31
0.0
  0
LINE
  5
349
  8
0
 10
-160.5
 20
555.247600000000034
 30
0.0
 11
-107.3700000000000045
 21
599.1427999999998519
 31
0.0
  0
LINE
  5
34A
  8
0
 10
-107.3700000000000045
 20
599.1427999999998519
 30
0.0
 11
-53.8081000000000031
 21
641.1959000000000515
 31
0.0
  0
LINE
  5
34B
  8
0
 10
-53.8081000000000031
 20
641.1959000000000515
 30
0.0
 11
0.0
 21
682.2006999999999834
 31
0.0
  0
LINE
  5
34C
  8
0
 10
-315.4529999999999745
 20
315.4529999999999745
 30
0.0
 11
-264.1100000000000136
 21
365.197400000000016
 31
0.0
  0
LINE
  5
34D
  8
0
 10
-264.1100000000000136
 20
365.197400000000016
 30
0.0
 11
-212.5089999999999861
 21
415.1917669906317769
 31
0.0
  0
LINE
  5
34E
  8
0
 10
-212.5089999999999861
 20
415.1917669906317769
 30
0.0
 11
-159.9499999999999886
 21
462.3045999999999935
 31
0.0
  0
LINE
  5
34F
  8
0
 10
-159.9499999999999886
 20
462.3045999999999935
 30
0.0
 11
-107.0390000000000015
 21
509.102999999999895
 31
0.0
  0
LINE
  5
350
  8
0
 10
-107.0390000000000015
 20
509.102999999999895
 30
0.0
 11
-53.6544999999999987
 21
554.5723000000000411
 31
0.0
  0
LINE
  5
351
  8
0
 10
-53.6544999999999987
 20
554.5723000000000411
 30
0.0
 11
0.0
 21
598.3618999999999915
 31
0.0
  0
LINE
  5
352
  8
0
 10
-264.0190000000000055
 20
264.0190000000000055
 30
0.0
 11
-211.9869999999999948
 21
314.7185999999999808
 31
0.0
  0
LINE
  5
353
  8
0
 10
-211.9869999999999948
 20
314.7185999999999808
 30
0.0
 11
-159.7539999999999907
 21
365.057200000000023
 31
0.0
  0
LINE
  5
354
  8
0
 10
-159.7539999999999907
 20
365.057200000000023
 30
0.0
 11
-106.769999999999996
 21
414.0577999999998724
 31
0.0
  0
LINE
  5
355
  8
0
 10
-106.769999999999996
 20
414.0577999999998724
 30
0.0
 11
-53.5469000000000008
 21
462.1875
 31
0.0
  0
LINE
  5
356
  8
0
 10
-53.5469000000000008
 20
462.1875
 30
0.0
 11
0.0
 21
509.1385000000000218
 31
0.0
  0
LINE
  5
35D
  8
0
 10
-159.313999999999993
 20
159.313999999999993
 30
0.0
 11
-106.3799999999999955
 21
211.4487000000000023
 31
0.0
  0
LINE
  5
35E
  8
0
 10
-106.3799999999999955
 20
211.4487000000000023
 30
0.0
 11
-53.3560000000000016
 21
263.3353000000000179
 31
0.0
  0
LINE
  5
35F
  8
0
 10
-53.3560000000000016
 20
263.3353000000000179
 30
0.0
 11
0.0
 21
314.301400000000001
 31
0.0
  0
LINE
  5
361
  8
0
 10
-106.4320000000000022
 20
106.4320000000000022
 30
0.0
 11
-53.2325000000000017
 21
159.0980999999999881
 31
0.0
  0
LINE
  5
362
  8
0
 10
-53.2325000000000017
 20
159.0980999999999881
 30
0.0
 11
0.0
 21
211.5724999999999909
 31
0.0
  0
LINE
  5
363
  8
0
 10
-53.2554999999999907
 20
53.2554999999999907
 30
0.0
 11
0.0
 21
106.2446000000000055
 31
0.0
  0
LINE
  5
364
  8
0
 10
0.0
 20
0.0
 30
0.0
 11
0.0
 21
106.2446000000000055
 31
0.0
  0
LINE
  5
365
  8
0
 10
0.0
 20
106.2446000000000055
 30
0.0
 11
0.0
 21
211.5724999999999909
 31
0.0
  0
LINE
  5
366
  8
0
 10
0.0
 20
211.5724999999999909
 30
0.0
 11
0.0
 21
314.301400000000001
 31
0.0
  0
LINE
  5
367
  8
0
 10
0.0
 20
314.301400000000001
 30
0.0
 11
0.0
 21
413.9173000000000116
 31
0.0
  0
LINE
  5
368
  8
0
 10
0.0
 20
413.9173000000000116
 30
0.0
 11
0.0
 21
509.1385000000000218
 31
0.0
  0
LINE
  5
369
  8
0
 10
0.0
 20
509.1385000000000218
 30
0.0
 11
0.0
 21
598.3618999999999915
 31
0.0
  0
LINE
  5
36A
  8
0
 10
0.0
 20
598.3618999999999915
 30
0.0
 11
0.0
 21
682.2006999999999834
 31
0.0
  0
LINE
  5
36B
  8
0
 10
0.0
 20
682.2006999999999834
 30
0.0
 11
0.0
 21
756.5573000000000548
 31
0.0
  0
LINE
  5
36C
  8
0
 10
-98.017099999999985
 20
995.1847000000000207
 30
0.0
 11
0.0
 21
932.6475000000000364
 31
0.0
  0
LINE
  5
36D
  8
0
 10
-86.615399999999994
 20
920.4280999999998585
 30
0.0
 11
0.0
 21
869.6227999999998701
 31
0.0
  0
LINE
  5
36E
  8
0
 10
-75.4842000000000013
 20
849.7288999999999533
 30
0.0
 11
0.0
 21
810.9261000000000195
 31
0.0
  0
LINE
  5
36F
  8
0
 10
-64.623500000000007
 20
783.087099999999964
 30
0.0
 11
0.0
 21
756.5573000000000548
 31
0.0
  0
LINE
  5
372
  8
0
 10
-54.033299999999997
 20
720.5027000000000044
 30
0.0
 11
-53.8081000000000031
 21
641.1959000000000515
 31
0.0
  0
LINE
  5
373
  8
0
 10
-53.8081000000000031
 20
641.1959000000000515
 30
0.0
 11
-53.6544999999999987
 21
554.5723000000000411
 31
0.0
  0
LINE
  5
374
  8
0
 10
-53.6544999999999987
 20
554.5723000000000411
 30
0.0
 11
-53.5469000000000008
 21
462.1875
 31
0.0
  0
LINE
  5
375
  8
0
 10
-53.5469000000000008
 20
462.1875
 30
0.0
 11
-53.3733000000000004
 21
364.6186999999999898
 31
0.0
  0
LINE
  5
376
  8
0
 10
-53.3733000000000004
 20
364.6186999999999898
 30
0.0
 11
-53.3560000000000016
 21
263.3353000000000179
 31
0.0
  0
LINE
  5
377
  8
0
 10
-53.3560000000000016
 20
263.3353000000000179
 30
0.0
 11
-53.2325000000000017
 21
159.0980999999999881
 31
0.0
  0
LINE
  5
378
  8
0
 10
-53.2325000000000017
 20
159.0980999999999881
 30
0.0
 11
-53.2554999999999907
 21
53.2554999999999907
 31
0.0
  0
LINE
  5
379
  8
0
 10
-107.632000000000005
 20
681.5359999999999445
 30
0.0
 11
-107.3700000000000045
 21
599.1427999999998519
 31
0.0
  0
LINE
  5
37A
  8
0
 10
-107.3700000000000045
 20
599.1427999999998519
 30
0.0
 11
-107.0390000000000015
 21
509.102999999999895
 31
0.0
  0
LINE
  5
37B
  8
0
 10
-107.0390000000000015
 20
509.102999999999895
 30
0.0
 11
-106.769999999999996
 21
414.0577999999998724
 31
0.0
  0
LINE
  5
37C
  8
0
 10
-106.769999999999996
 20
414.0577999999998724
 30
0.0
 11
-106.617999999999995
 21
314.5602000000000089
 31
0.0
  0
LINE
  5
37D
  8
0
 10
-106.617999999999995
 20
314.5602000000000089
 30
0.0
 11
-106.3799999999999955
 21
211.4487000000000023
 31
0.0
  0
LINE
  5
37E
  8
0
 10
-106.3799999999999955
 20
211.4487000000000023
 30
0.0
 11
-106.4320000000000022
 21
106.4320000000000022
 31
0.0
  0
LINE
  5
37F
  8
0
 10
-160.8930000000000007
 20
641.4285999999998467
 30
0.0
 11
-160.5
 21
555.247600000000034
 31
0.0
  0
LINE
  5
380
  8
0
 10
-160.5
 20
555.247600000000034
 30
0.0
 11
-159.9499999999999886
 21
462.3045999999999935
 31
0.0
  0
LINE
  5
381
  8
0
 10
-159.9499999999999886
 20
462.3045999999999935
 30
0.0
 11
-159.7539999999999907
 21
365.057200000000023
 31
0.0
  0
LINE
  5
382
  8
0
 10
-159.7539999999999907
 20
365.057200000000023
 30
0.0
 11
-159.3220000000000027
 21
263.3725000000000023
 31
0.0
  0
LINE
  5
383
  8
0
 10
-159.3220000000000027
 20
263.3725000000000023
 30
0.0
 11
-159.313999999999993
 21
159.313999999999993
 31
0.0
  0
LINE
  5
384
  8
0
 10
-213.5579999999999927
 20
599.3166999999998552
 30
0.0
 11
-213.0049999999999955
 21
509.8730999999999085
 31
0.0
  0
LINE
  5
385
  8
0
 10
-213.0049999999999955
 20
509.8730999999999085
 30
0.0
 11
-212.5089999999999861
 21
415.1917669906317769
 31
0.0
  0
LINE
  5
386
  8
0
 10
-212.5089999999999861
 20
415.1917669906317769
 30
0.0
 11
-211.9869999999999948
 21
314.7185999999999808
 31
0.0
  0
LINE
  5
387
  8
0
 10
-211.9869999999999948
 20
314.7185999999999808
 30
0.0
 11
-211.8799999999999955
 21
211.8799999999999955
 31
0.0
  0
LINE
  5
388
  8
0
 10
-265.4499999999999886
 20
555.5751999999999953
 30
0.0
 11
-265.0480000000000018
 21
463.4057000000000244
 31
0.0
  0
LINE
  5
389
  8
0
 10
-265.0480000000000018
 20
463.4057000000000244
 30
0.0
 11
-264.1100000000000136
 21
365.197400000000016
 31
0.0
  0
LINE
  5
38A
  8
0
 10
-264.1100000000000136
 20
365.197400000000016
 30
0.0
 11
-264.0190000000000055
 21
264.0190000000000055
 31
0.0
  0
LINE
  5
38B
  8
0
 10
-316.7669999999999959
 20
510.6297999999998751
 30
0.0
 11
-315.9250000000000114
 21
415.1826999999998975
 31
0.0
  0
LINE
  5
38C
  8
0
 10
-315.9250000000000114
 20
415.1826999999998975
 30
0.0
 11
-315.4529999999999745
 21
315.4529999999999745
 31
0.0
  0
LINE
  5
38D
  8
0
 10
-366.7090000000000032
 20
463.7199999999999136
 30
0.0
 11
-366.48599999999999
 21
366.48599999999999
 31
0.0
  0
LINE
  5
38E
  8
0
 10
-366.7090000000000032
 20
463.7199999999999136
 30
0.0
 11
-315.9250000000000114
 21
415.1826999999998975
 31
0.0
  0
LINE
  5
38F
  8
0
 10
-315.9250000000000114
 20
415.1826999999998975
 30
0.0
 11
-264.1100000000000136
 21
365.197400000000016
 31
0.0
  0
LINE
  5
390
  8
0
 10
-264.1100000000000136
 20
365.197400000000016
 30
0.0
 11
-211.9869999999999948
 21
314.7185999999999808
 31
0.0
  0
LINE
  5
391
  8
0
 10
-211.9869999999999948
 20
314.7185999999999808
 30
0.0
 11
-159.3220000000000027
 21
263.3725000000000023
 31
0.0
  0
LINE
  5
392
  8
0
 10
-159.3220000000000027
 20
263.3725000000000023
 30
0.0
 11
-106.3799999999999955
 21
211.4487000000000023
 31
0.0
  0
LINE
  5
393
  8
0
 10
-106.3799999999999955
 20
211.4487000000000023
 30
0.0
 11
-53.2325000000000017
 21
159.0980999999999881
 31
0.0
  0
LINE
  5
394
  8
0
 10
-53.2325000000000017
 20
159.0980999999999881
 30
0.0
 11
0.0
 21
106.2446000000000055
 31
0.0
  0
LINE
  5
395
  8
0
 10
-316.7669999999999959
 20
510.6297999999998751
 30
0.0
 11
-265.0480000000000018
 21
463.4057000000000244
 31
0.0
  0
LINE
  5
396
  8
0
 10
-265.0480000000000018
 20
463.4057000000000244
 30
0.0
 11
-212.5089999999999861
 21
415.1917669906317769
 31
0.0
  0
LINE
  5
397
  8
0
 10
-212.5089999999999861
 20
415.1917669906317769
 30
0.0
 11
-159.7539999999999907
 21
365.057200000000023
 31
0.0
  0
LINE
  5
398
  8
0
 10
-159.7539999999999907
 20
365.057200000000023
 30
0.0
 11
-106.617999999999995
 21
314.5602000000000089
 31
0.0
  0
LINE
  5
399
  8
0
 10
-106.617999999999995
 20
314.5602000000000089
 30
0.0
 11
-53.3560000000000016
 21
263.3353000000000179
 31
0.0
  0
LINE
  5
39A
  8
0
 10
-53.3560000000000016
 20
263.3353000000000179
 30
0.0
 11
0.0
 21
211.5724999999999909
 31
0.0
  0
LINE
  5
39B
  8
0
 10
-265.4499999999999886
 20
555.5751999999999953
 30
0.0
 11
-213.0049999999999955
 21
509.8730999999999085
 31
0.0
  0
LINE
  5
39C
  8
0
 10
-213.0049999999999955
 20
509.8730999999999085
 30
0.0
 11
-159.9499999999999886
 21
462.3045999999999935
 31
0.0
  0
LINE
  5
39D
  8
0
 10
-159.9499999999999886
 20
462.3045999999999935
 30
0.0
 11
-106.769999999999996
 21
414.0577999999998724
 31
0.0
  0
LINE
  5
39E
  8
0
 10
-106.769999999999996
 20
414.0577999999998724
 30
0.0
 11
-53.3733000000000004
 21
364.6186999999999898
 31
0.0
  0
LINE
  5
39F
  8
0
 10
-53.3733000000000004
 20
364.6186999999999898
 30
0.0
 11
0.0
 21
314.301400000000001
 31
0.0
  0
LINE
  5
3A0
  8
0
 10
-213.5579999999999927
 20
599.3166999999998552
 30
0.0
 11
-160.5
 21
555.247600000000034
 31
0.0
  0
LINE
  5
3A1
  8
0
 10
-160.5
 20
555.247600000000034
 30
0.0
 11
-107.0390000000000015
 21
509.102999999999895
 31
0.0
  0
LINE
  5
3A2
  8
0
 10
-107.0390000000000015
 20
509.102999999999895
 30
0.0
 11
-53.5469000000000008
 21
462.1875
 31
0.0
  0
LINE
  5
3A3
  8
0
 10
-53.5469000000000008
 20
462.1875
 30
0.0
 11
0.0
 21
413.9173000000000116
 31
0.0
  0
LINE
  5
3A4
  8
0
 10
-160.8930000000000007
 20
641.4285999999998467
 30
0.0
 11
-107.3700000000000045
 21
599.1427999999998519
 31
0.0
  0
LINE
  5
3A5
  8
0
 10
-107.3700000000000045
 20
599.1427999999998519
 30
0.0
 11
-53.6544999999999987
 21
554.5723000000000411
 31
0.0
  0
LINE
  5
3A6
  8
0
 10
-53.6544999999999987
 20
554.5723000000000411
 30
0.0
 11
0.0
 21
509.1385000000000218
 31
0.0
  0
LINE
  5
3A7
  8
0
 10
-107.632000000000005
 20
681.5359999999999445
 30
0.0
 11
-53.8081000000000031
 21
641.1959000000000515
 31
0.0
  0
LINE
  5
3A8
  8
0
 10
-53.8081000000000031
 20
641.1959000000000515
 30
0.0
 11
0.0
 21
598.3618999999999915
 31
0.0
  0
LINE
  5
3A9
  8
0
 10
-485.7409999999998718
 20
485.7409999999998718
 30
0.0
 11
-366.7090000000000032
 21
463.7199999999999136
 31
0.0
  0
LINE
  5
3AA
  8
0
 10
-557.3659999999999854
 20
557.3655999999998585
 30
0.0
 11
-430.7900000000000205
 21
537.3908999999999878
 31
0.0
  0
LINE
  5
3AB
  8
0
 10
-631.1539999999998827
 20
631.1541999999999462
 30
0.0
 11
-496.76400000000001
 21
613.4962999999999056
 31
0.0
  0
LINE
  5
3AC
  8
0
 10
-707.1069999999998572
 20
707.1069999999998572
 30
0.0
 11
-565.6319999999999482
 21
692.0361999999998943
 31
0.0
  0
LINE
  5
3AD
  8
0
 10
-634.3930000000000291
 20
773.0104999999999791
 30
0.0
 11
-493.4350000000000023
 21
747.202199999999948
 31
0.0
  0
LINE
  5
3AE
  8
0
 10
-493.4350000000000023
 20
747.202199999999948
 30
0.0
 11
-365.7180000000000177
 21
712.7974000000000387
 31
0.0
  0
LINE
  5
3AF
  8
0
 10
-365.7180000000000177
 20
712.7974000000000387
 30
0.0
 11
-254.2160000000000082
 21
675.5884999999999536
 31
0.0
  0
LINE
  5
3B0
  8
0
 10
-254.2160000000000082
 20
675.5884999999999536
 30
0.0
 11
-160.8930000000000007
 21
641.4285999999998467
 31
0.0
  0
LINE
  5
3B1
  8
0
 10
-565.6319999999999482
 20
692.0361999999998943
 30
0.0
 11
-432.9229999999998881
 21
665.6398000000000366
 31
0.0
  0
LINE
  5
3B2
  8
0
 10
-432.9229999999998881
 20
665.6398000000000366
 30
0.0
 11
-314.9069999999999823
 21
632.6986000000000558
 31
0.0
  0
LINE
  5
3B3
  8
0
 10
-314.9069999999999823
 20
632.6986000000000558
 30
0.0
 11
-213.5579999999999927
 21
599.3166999999998552
 31
0.0
  0
LINE
  5
3B4
  8
0
 10
-496.76400000000001
 20
613.4962999999999056
 30
0.0
 11
-374.0339999999999918
 21
586.7822999999998501
 31
0.0
  0
LINE
  5
3B5
  8
0
 10
-374.0339999999999918
 20
586.7822999999998501
 30
0.0
 11
-265.4499999999999886
 21
555.5751999999999953
 31
0.0
  0
LINE
  5
3B6
  8
0
 10
-430.7900000000000205
 20
537.3908999999999878
 30
0.0
 11
-316.7669999999999959
 21
510.6297999999998751
 31
0.0
  0
LINE
  5
3B7
  8
0
 10
-555.57000000000005
 20
831.4695999999999003
 30
0.0
 11
-417.880999999999915
 21
795.871599999999944
 31
0.0
  0
LINE
  5
3B8
  8
0
 10
-417.880999999999915
 20
795.871599999999944
 30
0.0
 11
-295.9569999999999936
 21
755.1061999999999443
 31
0.0
  0
LINE
  5
3B9
  8
0
 10
-295.9569999999999936
 20
755.1061999999999443
 30
0.0
 11
-192.0229999999999961
 21
715.0319999999999254
 31
0.0
  0
LINE
  5
3BA
  8
0
 10
-192.0229999999999961
 20
715.0319999999999254
 30
0.0
 11
-107.632000000000005
 21
681.5359999999999445
 31
0.0
  0
LINE
  5
3BB
  8
0
 10
-471.3969999999998777
 20
881.9212999999998601
 30
0.0
 11
-338.7789999999999964
 21
837.8699000000001433
 31
0.0
  0
LINE
  5
3BC
  8
0
 10
-338.7789999999999964
 20
837.8699000000001433
 30
0.0
 11
-223.9660000000000082
 21
792.1516000000000304
 31
0.0
  0
LINE
  5
3BD
  8
0
 10
-223.9660000000000082
 20
792.1516000000000304
 30
0.0
 11
-128.6850000000000023
 21
750.6679000000000315
 31
0.0
  0
LINE
  5
3BE
  8
0
 10
-128.6850000000000023
 20
750.6679000000000315
 30
0.0
 11
-54.033299999999997
 21
720.5027000000000044
 31
0.0
  0
LINE
  5
3BF
  8
0
 10
-54.033299999999997
 20
720.5027000000000044
 30
0.0
 11
0.0
 21
682.2006999999999834
 31
0.0
  0
LINE
  5
3C0
  8
0
 10
-382.6830000000001064
 20
923.8794999999998936
 30
0.0
 11
-256.7189999999999941
 21
872.7877999999999474
 31
0.0
  0
LINE
  5
3C1
  8
0
 10
-256.7189999999999941
 20
872.7877999999999474
 30
0.0
 11
-150.2789999999999964
 21
823.5867999999999256
 31
0.0
  0
LINE
  5
3C2
  8
0
 10
-150.2789999999999964
 20
823.5867999999999256
 30
0.0
 11
-64.623500000000007
 21
783.087099999999964
 31
0.0
  0
LINE
  5
3C3
  8
0
 10
-290.285000000000025
 20
956.9402999999998656
 30
0.0
 11
-172.4139999999999873
 21
900.2925999999999931
 31
0.0
  0
LINE
  5
3C4
  8
0
 10
-172.4139999999999873
 20
900.2925999999999931
 30
0.0
 11
-75.4842000000000013
 21
849.7288999999999533
 31
0.0
  0
LINE
  5
3C5
  8
0
 10
-195.0900000000000034
 20
980.7852999999998929
 30
0.0
 11
-86.615399999999994
 21
920.4280999999998585
 31
0.0
  0
LINE
  5
3C6
  8
0
 10
0.0
 20
1000.0
 30
0.0
 11
98.017099999999985
 21
995.1847000000000207
 31
0.0
  0
LINE
  5
3C7
  8
0
 10
98.017099999999985
 20
995.1847000000000207
 30
0.0
 11
195.0900000000000034
 21
980.7852999999998929
 31
0.0
  0
LINE
  5
3C8
  8
0
 10
195.0900000000000034
 20
980.7852999999998929
 30
0.0
 11
290.285000000000025
 21
956.9402999999998656
 31
0.0
  0
LINE
  5
3C9
  8
0
 10
290.285000000000025
 20
956.9402999999998656
 30
0.0
 11
382.6830000000001064
 21
923.8794999999998936
 31
0.0
  0
LINE
  5
3CA
  8
0
 10
382.6830000000001064
 20
923.8794999999998936
 30
0.0
 11
471.3969999999998777
 21
881.9212999999998601
 31
0.0
  0
LINE
  5
3CB
  8
0
 10
471.3969999999998777
 20
881.9212999999998601
 30
0.0
 11
555.57000000000005
 21
831.4695999999999003
 31
0.0
  0
LINE
  5
3CC
  8
0
 10
555.57000000000005
 20
831.4695999999999003
 30
0.0
 11
634.3930000000000291
 21
773.0104999999999791
 31
0.0
  0
LINE
  5
3CD
  8
0
 10
634.3930000000000291
 20
773.0104999999999791
 30
0.0
 11
707.1069999999998572
 21
707.1069999999998572
 31
0.0
  0
LINE
  5
3CE
  8
0
 10
0.0
 20
756.5573000000000548
 30
0.0
 11
54.033299999999997
 21
720.5027000000000044
 31
0.0
  0
LINE
  5
3CF
  8
0
 10
54.033299999999997
 20
720.5027000000000044
 30
0.0
 11
107.632000000000005
 21
681.5359999999999445
 31
0.0
  0
LINE
  5
3D0
  8
0
 10
107.632000000000005
 20
681.5359999999999445
 30
0.0
 11
160.8930000000000007
 21
641.4285999999998467
 31
0.0
  0
LINE
  5
3D1
  8
0
 10
160.8930000000000007
 20
641.4285999999998467
 30
0.0
 11
213.5579999999999927
 21
599.3166999999998552
 31
0.0
  0
LINE
  5
3D2
  8
0
 10
213.5579999999999927
 20
599.3166999999998552
 30
0.0
 11
265.4499999999999886
 21
555.5751999999999953
 31
0.0
  0
LINE
  5
3D3
  8
0
 10
265.4499999999999886
 20
555.5751999999999953
 30
0.0
 11
316.7669999999999959
 21
510.6297999999998751
 31
0.0
  0
LINE
  5
3D4
  8
0
 10
316.7669999999999959
 20
510.6297999999998751
 30
0.0
 11
366.7090000000000032
 21
463.7199999999999136
 31
0.0
  0
LINE
  5
3D5
  8
0
 10
366.7090000000000032
 20
463.7199999999999136
 30
0.0
 11
416.2799999999999159
 21
416.2799999999999159
 31
0.0
  0
LINE
  5
3D6
  8
0
 10
416.2799999999999159
 20
416.2799999999999159
 30
0.0
 11
485.7409999999998718
 21
485.7409999999998718
 31
0.0
  0
LINE
  5
3D7
  8
0
 10
485.7409999999998718
 20
485.7409999999998718
 30
0.0
 11
557.3659999999999854
 21
557.3655999999998585
 31
0.0
  0
LINE
  5
3D8
  8
0
 10
557.3659999999999854
 20
557.3655999999998585
 30
0.0
 11
631.1539999999998827
 21
631.1541999999999462
 31
0.0
  0
LINE
  5
3D9
  8
0
 10
631.1539999999998827
 20
631.1541999999999462
 30
0.0
 11
707.1069999999998572
 21
707.1069999999998572
 31
0.0
  0
LINE
  5
3DA
  8
0
 10
98.017099999999985
 20
995.1847000000000207
 30
0.0
 11
86.615399999999994
 21
920.4280999999998585
 31
0.0
  0
LINE
  5
3DB
  8
0
 10
86.615399999999994
 20
920.4280999999998585
 30
0.0
 11
75.4842000000000013
 21
849.7288999999999533
 31
0.0
  0
LINE
  5
3DC
  8
0
 10
75.4842000000000013
 20
849.7288999999999533
 30
0.0
 11
64.623500000000007
 21
783.087099999999964
 31
0.0
  0
LINE
  5
3DD
  8
0
 10
64.623500000000007
 20
783.087099999999964
 30
0.0
 11
54.033299999999997
 21
720.5027000000000044
 31
0.0
  0
LINE
  5
3DE
  8
0
 10
195.0900000000000034
 20
980.7852999999998929
 30
0.0
 11
172.4139999999999873
 21
900.2925999999999931
 31
0.0
  0
LINE
  5
3DF
  8
0
 10
172.4139999999999873
 20
900.2925999999999931
 30
0.0
 11
150.2789999999999964
 21
823.5867999999999256
 31
0.0
  0
LINE
  5
3E0
  8
0
 10
150.2789999999999964
 20
823.5867999999999256
 30
0.0
 11
128.6850000000000023
 21
750.6679000000000315
 31
0.0
  0
LINE
  5
3E1
  8
0
 10
128.6850000000000023
 20
750.6679000000000315
 30
0.0
 11
107.632000000000005
 21
681.5359999999999445
 31
0.0
  0
LINE
  5
3E2
  8
0
 10
631.1539999999998827
 20
631.1541999999999462
 30
0.0
 11
565.6319999999999482
 21
692.0361999999998943
 31
0.0
  0
LINE
  5
3E3
  8
0
 10
565.6319999999999482
 20
692.0361999999998943
 30
0.0
 11
493.4350000000000023
 21
747.202199999999948
 31
0.0
  0
LINE
  5
3E4
  8
0
 10
493.4350000000000023
 20
747.202199999999948
 30
0.0
 11
417.880999999999915
 21
795.871599999999944
 31
0.0
  0
LINE
  5
3E5
  8
0
 10
417.880999999999915
 20
795.871599999999944
 30
0.0
 11
338.7789999999999964
 21
837.8699000000001433
 31
0.0
  0
LINE
  5
3E6
  8
0
 10
338.7789999999999964
 20
837.8699000000001433
 30
0.0
 11
256.7189999999999941
 21
872.7877999999999474
 31
0.0
  0
LINE
  5
3E7
  8
0
 10
256.7189999999999941
 20
872.7877999999999474
 30
0.0
 11
172.4139999999999873
 21
900.2925999999999931
 31
0.0
  0
LINE
  5
3E8
  8
0
 10
172.4139999999999873
 20
900.2925999999999931
 30
0.0
 11
86.615399999999994
 21
920.4280999999998585
 31
0.0
  0
LINE
  5
3E9
  8
0
 10
86.615399999999994
 20
920.4280999999998585
 30
0.0
 11
0.0
 21
932.6475000000000364
 31
0.0
  0
LINE
  5
3EA
  8
0
 10
557.3659999999999854
 20
557.3655999999998585
 30
0.0
 11
496.76400000000001
 21
613.4962999999999056
 31
0.0
  0
LINE
  5
3EB
  8
0
 10
496.76400000000001
 20
613.4962999999999056
 30
0.0
 11
432.9229999999998881
 21
665.6398000000000366
 31
0.0
  0
LINE
  5
3EC
  8
0
 10
432.9229999999998881
 20
665.6398000000000366
 30
0.0
 11
365.7180000000000177
 21
712.7974000000000387
 31
0.0
  0
LINE
  5
3ED
  8
0
 10
365.7180000000000177
 20
712.7974000000000387
 30
0.0
 11
295.9569999999999936
 21
755.1061999999999443
 31
0.0
  0
LINE
  5
3EE
  8
0
 10
295.9569999999999936
 20
755.1061999999999443
 30
0.0
 11
223.9660000000000082
 21
792.1516000000000304
 31
0.0
  0
LINE
  5
3EF
  8
0
 10
223.9660000000000082
 20
792.1516000000000304
 30
0.0
 11
150.2789999999999964
 21
823.5867999999999256
 31
0.0
  0
LINE
  5
3F0
  8
0
 10
150.2789999999999964
 20
823.5867999999999256
 30
0.0
 11
75.4842000000000013
 21
849.7288999999999533
 31
0.0
  0
LINE
  5
3F1
  8
0
 10
75.4842000000000013
 20
849.7288999999999533
 30
0.0
 11
0.0
 21
869.6227999999998701
 31
0.0
  0
LINE
  5
3F2
  8
0
 10
416.2799999999999159
 20
416.2799999999999159
 30
0.0
 11
366.48599999999999
 21
366.48599999999999
 31
0.0
  0
LINE
  5
3F3
  8
0
 10
366.48599999999999
 20
366.48599999999999
 30
0.0
 11
315.4529999999999745
 21
315.4529999999999745
 31
0.0
  0
LINE
  5
3F4
  8
0
 10
315.4529999999999745
 20
315.4529999999999745
 30
0.0
 11
264.0190000000000055
 21
264.0190000000000055
 31
0.0
  0
LINE
  5
3F5
  8
0
 10
264.0190000000000055
 20
264.0190000000000055
 30
0.0
 11
211.8799999999999955
 21
211.8799999999999955
 31
0.0
  0
LINE
  5
3F6
  8
0
 10
211.8799999999999955
 20
211.8799999999999955
 30
0.0
 11
159.313999999999993
 21
159.313999999999993
 31
0.0
  0
LINE
  5
3F7
  8
0
 10
159.313999999999993
 20
159.313999999999993
 30
0.0
 11
106.4320000000000022
 21
106.4320000000000022
 31
0.0
  0
LINE
  5
3F8
  8
0
 10
106.4320000000000022
 20
106.4320000000000022
 30
0.0
 11
53.2554999999999907
 21
53.2554999999999907
 31
0.0
  0
LINE
  5
3F9
  8
0
 10
53.2554999999999907
 20
53.2554999999999907
 30
0.0
 11
0.0
 21
0.0
 31
0.0
  0
LINE
  5
3FA
  8
0
 10
485.7409999999998718
 20
485.7409999999998718
 30
0.0
 11
430.7900000000000205
 21
537.3908999999999878
 31
0.0
  0
LINE
  5
3FB
  8
0
 10
430.7900000000000205
 20
537.3908999999999878
 30
0.0
 11
374.0339999999999918
 21
586.7822999999998501
 31
0.0
  0
LINE
  5
3FC
  8
0
 10
374.0339999999999918
 20
586.7822999999998501
 30
0.0
 11
314.9069999999999823
 21
632.6986000000000558
 31
0.0
  0
LINE
  5
3FD
  8
0
 10
314.9069999999999823
 20
632.6986000000000558
 30
0.0
 11
254.2160000000000082
 21
675.5884999999999536
 31
0.0
  0
LINE
  5
3FE
  8
0
 10
254.2160000000000082
 20
675.5884999999999536
 30
0.0
 11
192.0229999999999961
 21
715.0319999999999254
 31
0.0
  0
LINE
  5
3FF
  8
0
 10
192.0229999999999961
 20
715.0319999999999254
 30
0.0
 11
128.6850000000000023
 21
750.6679000000000315
 31
0.0
  0
LINE
  5
400
  8
0
 10
128.6850000000000023
 20
750.6679000000000315
 30
0.0
 11
64.623500000000007
 21
783.087099999999964
 31
0.0
  0
LINE
  5
401
  8
0
 10
64.623500000000007
 20
783.087099999999964
 30
0.0
 11
0.0
 21
810.9261000000000195
 31
0.0
  0
LINE
  5
402
  8
0
 10
290.285000000000025
 20
956.9402999999998656
 30
0.0
 11
256.7189999999999941
 21
872.7877999999999474
 31
0.0
  0
LINE
  5
403
  8
0
 10
256.7189999999999941
 20
872.7877999999999474
 30
0.0
 11
223.9660000000000082
 21
792.1516000000000304
 31
0.0
  0
LINE
  5
404
  8
0
 10
223.9660000000000082
 20
792.1516000000000304
 30
0.0
 11
192.0229999999999961
 21
715.0319999999999254
 31
0.0
  0
LINE
  5
405
  8
0
 10
192.0229999999999961
 20
715.0319999999999254
 30
0.0
 11
160.8930000000000007
 21
641.4285999999998467
 31
0.0
  0
LINE
  5
406
  8
0
 10
382.6830000000001064
 20
923.8794999999998936
 30
0.0
 11
338.7789999999999964
 21
837.8699000000001433
 31
0.0
  0
LINE
  5
407
  8
0
 10
338.7789999999999964
 20
837.8699000000001433
 30
0.0
 11
295.9569999999999936
 21
755.1061999999999443
 31
0.0
  0
LINE
  5
408
  8
0
 10
295.9569999999999936
 20
755.1061999999999443
 30
0.0
 11
254.2160000000000082
 21
675.5884999999999536
 31
0.0
  0
LINE
  5
409
  8
0
 10
254.2160000000000082
 20
675.5884999999999536
 30
0.0
 11
213.5579999999999927
 21
599.3166999999998552
 31
0.0
  0
LINE
  5
40A
  8
0
 10
265.4499999999999886
 20
555.5751999999999953
 30
0.0
 11
314.9069999999999823
 21
632.6986000000000558
 31
0.0
  0
LINE
  5
40B
  8
0
 10
314.9069999999999823
 20
632.6986000000000558
 30
0.0
 11
365.7180000000000177
 21
712.7974000000000387
 31
0.0
  0
LINE
  5
40C
  8
0
 10
365.7180000000000177
 20
712.7974000000000387
 30
0.0
 11
417.880999999999915
 21
795.871599999999944
 31
0.0
  0
LINE
  5
40D
  8
0
 10
417.880999999999915
 20
795.871599999999944
 30
0.0
 11
471.3969999999998777
 21
881.9212999999998601
 31
0.0
  0
LINE
  5
40E
  8
0
 10
555.57000000000005
 20
831.4695999999999003
 30
0.0
 11
493.4350000000000023
 21
747.202199999999948
 31
0.0
  0
LINE
  5
40F
  8
0
 10
493.4350000000000023
 20
747.202199999999948
 30
0.0
 11
432.9229999999998881
 21
665.6398000000000366
 31
0.0
  0
LINE
  5
410
  8
0
 10
432.9229999999998881
 20
665.6398000000000366
 30
0.0
 11
374.0339999999999918
 21
586.7822999999998501
 31
0.0
  0
LINE
  5
411
  8
0
 10
374.0339999999999918
 20
586.7822999999998501
 30
0.0
 11
316.7669999999999959
 21
510.6297999999998751
 31
0.0
  0
LINE
  5
412
  8
0
 10
634.3930000000000291
 20
773.0104999999999791
 30
0.0
 11
565.6319999999999482
 21
692.0361999999998943
 31
0.0
  0
LINE
  5
413
  8
0
 10
565.6319999999999482
 20
692.0361999999998943
 30
0.0
 11
496.76400000000001
 21
613.4962999999999056
 31
0.0
  0
LINE
  5
414
  8
0
 10
496.76400000000001
 20
613.4962999999999056
 30
0.0
 11
430.7900000000000205
 21
537.3908999999999878
 31
0.0
  0
LINE
  5
415
  8
0
 10
430.7900000000000205
 20
537.3908999999999878
 30
0.0
 11
366.7090000000000032
 21
463.7199999999999136
 31
0.0
  0
LINE
  5
416
  8
0
 10
211.8799999999999955
 20
211.8799999999999955
 30
0.0
 11
159.3220000000000027
 21
263.3725000000000023
 31
0.0
  0
LINE
  5
417
  8
0
 10
159.3220000000000027
 20
263.3725000000000023
 30
0.0
 11
106.617999999999995
 21
314.5602000000000089
 31
0.0
  0
LINE
  5
418
  8
0
 10
106.617999999999995
 20
314.5602000000000089
 30
0.0
 11
53.3733000000000004
 21
364.6186999999999898
 31
0.0
  0
LINE
  5
419
  8
0
 10
53.3733000000000004
 20
364.6186999999999898
 30
0.0
 11
0.0
 21
413.9173000000000116
 31
0.0
  0
LINE
  5
41A
  8
0
 10
366.48599999999999
 20
366.48599999999999
 30
0.0
 11
315.9250000000000114
 21
415.1826999999998975
 31
0.0
  0
LINE
  5
41B
  8
0
 10
315.9250000000000114
 20
415.1826999999998975
 30
0.0
 11
265.0480000000000018
 21
463.4057000000000244
 31
0.0
  0
LINE
  5
41C
  8
0
 10
265.0480000000000018
 20
463.4057000000000244
 30
0.0
 11
213.0049999999999955
 21
509.8730999999999085
 31
0.0
  0
LINE
  5
41D
  8
0
 10
213.0049999999999955
 20
509.8730999999999085
 30
0.0
 11
160.5
 21
555.247600000000034
 31
0.0
  0
LINE
  5
41E
  8
0
 10
160.5
 20
555.247600000000034
 30
0.0
 11
107.3700000000000045
 21
599.1427999999998519
 31
0.0
  0
LINE
  5
41F
  8
0
 10
107.3700000000000045
 20
599.1427999999998519
 30
0.0
 11
53.8081000000000031
 21
641.1959000000000515
 31
0.0
  0
LINE
  5
420
  8
0
 10
53.8081000000000031
 20
641.1959000000000515
 30
0.0
 11
0.0
 21
682.2006999999999834
 31
0.0
  0
LINE
  5
421
  8
0
 10
315.4529999999999745
 20
315.4529999999999745
 30
0.0
 11
264.1100000000000136
 21
365.197400000000016
 31
0.0
  0
LINE
  5
422
  8
0
 10
264.1100000000000136
 20
365.197400000000016
 30
0.0
 11
212.5089999999999861
 21
415.1917669906317769
 31
0.0
  0
LINE
  5
423
  8
0
 10
212.5089999999999861
 20
415.1917669906317769
 30
0.0
 11
159.9499999999999886
 21
462.3045999999999935
 31
0.0
  0
LINE
  5
424
  8
0
 10
159.9499999999999886
 20
462.3045999999999935
 30
0.0
 11
107.0390000000000015
 21
509.102999999999895
 31
0.0
  0
LINE
  5
425
  8
0
 10
107.0390000000000015
 20
509.102999999999895
 30
0.0
 11
53.6544999999999987
 21
554.5723000000000411
 31
0.0
  0
LINE
  5
426
  8
0
 10
53.6544999999999987
 20
554.5723000000000411
 30
0.0
 11
0.0
 21
598.3618999999999915
 31
0.0
  0
LINE
  5
427
  8
0
 10
264.0190000000000055
 20
264.0190000000000055
 30
0.0
 11
211.9869999999999948
 21
314.7185999999999808
 31
0.0
  0
LINE
  5
428
  8
0
 10
211.9869999999999948
 20
314.7185999999999808
 30
0.0
 11
159.7539999999999907
 21
365.057200000000023
 31
0.0
  0
LINE
  5
429
  8
0
 10
159.7539999999999907
 20
365.057200000000023
 30
0.0
 11
106.769999999999996
 21
414.0577999999998724
 31
0.0
  0
LINE
  5
42A
  8
0
 10
106.769999999999996
 20
414.0577999999998724
 30
0.0
 11
53.5469000000000008
 21
462.1875
 31
0.0
  0
LINE
  5
42B
  8
0
 10
53.5469000000000008
 20
462.1875
 30
0.0
 11
0.0
 21
509.1385000000000218
 31
0.0
  0
LINE
  5
42C
  8
0
 10
159.313999999999993
 20
159.313999999999993
 30
0.0
 11
106.3799999999999955
 21
211.4487000000000023
 31
0.0
  0
LINE
  5
42D
  8
0
 10
106.3799999999999955
 20
211.4487000000000023
 30
0.0
 11
53.3560000000000016
 21
263.3353000000000179
 31
0.0
  0
LINE
  5
42E
  8
0
 10
53.3560000000000016
 20
263.3353000000000179
 30
0.0
 11
0.0
 21
314.301400000000001
 31
0.0
  0
LINE
  5
42F
  8
0
 10
106.4320000000000022
 20
106.4320000000000022
 30
0.0
 11
53.2325000000000017
 21
159.0980999999999881
 31
0.0
  0
LINE
  5
430
  8
0
 10
53.2325000000000017
 20
159.0980999999999881
 30
0.0
 11
0.0
 21
211.5724999999999909
 31
0.0
  0
LINE
  5
431
  8
0
 10
53.2554999999999907
 20
53.2554999999999907
 30
0.0
 11
0.0
 21
106.2446000000000055
 31
0.0
  0
LINE
  5
432
  8
0
 10
98.017099999999985
 20
995.1847000000000207
 30
0.0
 11
0.0
 21
932.6475000000000364
 31
0.0
  0
LINE
  5
433
  8
0
 10
86.615399999999994
 20
920.4280999999998585
 30
0.0
 11
0.0
 21
869.6227999999998701
 31
0.0
  0
LINE
  5
434
  8
0
 10
75.4842000000000013
 20
849.7288999999999533
 30
0.0
 11
0.0
 21
810.9261000000000195
 31
0.0
  0
LINE
  5
435
  8
0
 10
64.623500000000007
 20
783.087099999999964
 30
0.0
 11
0.0
 21
756.5573000000000548
 31
0.0
  0
LINE
  5
436
  8
0
 10
54.033299999999997
 20
720.5027000000000044
 30
0.0
 11
53.8081000000000031
 21
641.1959000000000515
 31
0.0
  0
LINE
  5
437
  8
0
 10
53.8081000000000031
 20
641.1959000000000515
 30
0.0
 11
53.6544999999999987
 21
554.5723000000000411
 31
0.0
  0
LINE
  5
438
  8
0
 10
53.6544999999999987
 20
554.5723000000000411
 30
0.0
 11
53.5469000000000008
 21
462.1875
 31
0.0
  0
LINE
  5
439
  8
0
 10
53.5469000000000008
 20
462.1875
 30
0.0
 11
53.3733000000000004
 21
364.6186999999999898
 31
0.0
  0
LINE
  5
43A
  8
0
 10
53.3733000000000004
 20
364.6186999999999898
 30
0.0
 11
53.3560000000000016
 21
263.3353000000000179
 31
0.0
  0
LINE
  5
43B
  8
0
 10
53.3560000000000016
 20
263.3353000000000179
 30
0.0
 11
53.2325000000000017
 21
159.0980999999999881
 31
0.0
  0
LINE
  5
43C
  8
0
 10
53.2325000000000017
 20
159.0980999999999881
 30
0.0
 11
53.2554999999999907
 21
53.2554999999999907
 31
0.0
  0
LINE
  5
43D
  8
0
 10
107.632000000000005
 20
681.5359999999999445
 30
0.0
 11
107.3700000000000045
 21
599.1427999999998519
 31
0.0
  0
LINE
  5
43E
  8
0
 10
107.3700000000000045
 20
599.1427999999998519
 30
0.0
 11
107.0390000000000015
 21
509.102999999999895
 31
0.0
  0
LINE
  5
43F
  8
0
 10
107.0390000000000015
 20
509.102999999999895
 30
0.0
 11
106.769999999999996
 21
414.0577999999998724
 31
0.0
  0
LINE
  5
440
  8
0
 10
106.769999999999996
 20
414.0577999999998724
 30
0.0
 11
106.617999999999995
 21
314.5602000000000089
 31
0.0
  0
LINE
  5
441
  8
0
 10
106.617999999999995
 20
314.5602000000000089
 30
0.0
 11
106.3799999999999955
 21
211.4487000000000023
 31
0.0
  0
LINE
  5
442
  8
0
 10
106.3799999999999955
 20
211.4487000000000023
 30
0.0
 11
106.4320000000000022
 21
106.4320000000000022
 31
0.0
  0
LINE
  5
443
  8
0
 10
160.8930000000000007
 20
641.4285999999998467
 30
0.0
 11
160.5
 21
555.247600000000034
 31
0.0
  0
LINE
  5
444
  8
0
 10
160.5
 20
555.247600000000034
 30
0.0
 11
159.9499999999999886
 21
462.3045999999999935
 31
0.0
  0
LINE
  5
445
  8
0
 10
159.9499999999999886
 20
462.3045999999999935
 30
0.0
 11
159.7539999999999907
 21
365.057200000000023
 31
0.0
  0
LINE
  5
446
  8
0
 10
159.7539999999999907
 20
365.057200000000023
 30
0.0
 11
159.3220000000000027
 21
263.3725000000000023
 31
0.0
  0
LINE
  5
447
  8
0
 10
159.3220000000000027
 20
263.3725000000000023
 30
0.0
 11
159.313999999999993
 21
159.313999999999993
 31
0.0
  0
LINE
  5
448
  8
0
 10
213.5579999999999927
 20
599.3166999999998552
 30
0.0
 11
213.0049999999999955
 21
509.8730999999999085
 31
0.0
  0
LINE
  5
449
  8
0
 10
213.0049999999999955
 20
509.8730999999999085
 30
0.0
 11
212.5089999999999861
 21
415.1917669906317769
 31
0.0
  0
LINE
  5
44A
  8
0
 10
212.5089999999999861
 20
415.1917669906317769
 30
0.0
 11
211.9869999999999948
 21
314.7185999999999808
 31
0.0
  0
LINE
  5
44B
  8
0
 10
211.9869999999999948
 20
314.7185999999999808
 30
0.0
 11
211.8799999999999955
 21
211.8799999999999955
 31
0.0
  0
LINE
  5
44C
  8
0
 10
265.4499999999999886
 20
555.5751999999999953
 30
0.0
 11
265.0480000000000018
 21
463.4057000000000244
 31
0.0
  0
LINE
  5
44D
  8
0
 10
265.0480000000000018
 20
463.4057000000000244
 30
0.0
 11
264.1100000000000136
 21
365.197400000000016
 31
0.0
  0
LINE
  5
44E
  8
0
 10
264.1100000000000136
 20
365.197400000000016
 30
0.0
 11
264.0190000000000055
 21
264.0190000000000055
 31
0.0
  0
LINE
  5
44F
  8
0
 10
316.7669999999999959
 20
510.6297999999998751
 30
0.0
 11
315.9250000000000114
 21
415.1826999999998975
 31
0.0
  0
LINE
  5
450
  8
0
 10
315.9250000000000114
 20
415.1826999999998975
 30
0.0
 11
315.4529999999999745
 21
315.4529999999999745
 31
0.0
  0
LINE
  5
451
  8
0
 10
366.7090000000000032
 20
463.7199999999999136
 30
0.0
 11
366.48599999999999
 21
366.48599999999999
 31
0.0
  0
LINE
  5
452
  8
0
 10
366.7090000000000032
 20
463.7199999999999136
 30
0.0
 11
315.9250000000000114
 21
415.1826999999998975
 31
0.0
  0
LINE
  5
453
  8
0
 10
315.9250000000000114
 20
415.1826999999998975
 30
0.0
 11
264.1100000000000136
 21
365.197400000000016
 31
0.0
  0
LINE
  5
454
  8
0
 10
264.1100000000000136
 20
365.197400000000016
 30
0.0
 11
211.9869999999999948
 21
314.7185999999999808
 31
0.0
  0
LINE
  5
455
  8
0
 10
211.9869999999999948
 20
314.7185999999999808
 30
0.0
 11
159.3220000000000027
 21
263.3725000000000023
 31
0.0
  0
LINE
  5
456
  8
0
 10
159.3220000000000027
 20
263.3725000000000023
 30
0.0
 11
106.3799999999999955
 21
211.4487000000000023
 31
0.0
  0
LINE
  5
457
  8
0
 10
106.3799999999999955
 20
211.4487000000000023
 30
0.0
 11
53.2325000000000017
 21
159.0980999999999881
 31
0.0
  0
LINE
  5
458
  8
0
 10
53.2325000000000017
 20
159.0980999999999881
 30
0.0
 11
0.0
 21
106.2446000000000055
 31
0.0
  0
LINE
  5
459
  8
0
 10
316.7669999999999959
 20
510.6297999999998751
 30
0.0
 11
265.0480000000000018
 21
463.4057000000000244
 31
0.0
  0
LINE
  5
45A
  8
0
 10
265.0480000000000018
 20
463.4057000000000244
 30
0.0
 11
212.5089999999999861
 21
415.1917669906317769
 31
0.0
  0
LINE
  5
45B
  8
0
 10
212.5089999999999861
 20
415.1917669906317769
 30
0.0
 11
159.7539999999999907
 21
365.057200000000023
 31
0.0
  0
LINE
  5
45C
  8
0
 10
159.7539999999999907
 20
365.057200000000023
 30
0.0
 11
106.617999999999995
 21
314.5602000000000089
 31
0.0
  0
LINE
  5
45D
  8
0
 10
106.617999999999995
 20
314.5602000000000089
 30
0.0
 11
53.3560000000000016
 21
263.3353000000000179
 31
0.0
  0
LINE
  5
45E
  8
0
 10
53.3560000000000016
 20
263.3353000000000179
 30
0.0
 11
0.0
 21
211.5724999999999909
 31
0.0
  0
LINE
  5
45F
  8
0
 10
265.4499999999999886
 20
555.5751999999999953
 30
0.0
 11
213.0049999999999955
 21
509.8730999999999085
 31
0.0
  0
LINE
  5
460
  8
0
 10
213.0049999999999955
 20
509.8730999999999085
 30
0.0
 11
159.9499999999999886
 21
462.3045999999999935
 31
0.0
  0
LINE
  5
461
  8
0
 10
159.9499999999999886
 20
462.3045999999999935
 30
0.0
 11
106.769999999999996
 21
414.0577999999998724
 31
0.0
  0
LINE
  5
462
  8
0
 10
106.769999999999996
 20
414.0577999999998724
 30
0.0
 11
53.3733000000000004
 21
364.6186999999999898
 31
0.0
  0
LINE
  5
463
  8
0
 10
53.3733000000000004
 20
364.6186999999999898
 30
0.0
 11
0.0
 21
314.301400000000001
 31
0.0
  0
LINE
  5
464
  8
0
 10
213.5579999999999927
 20
599.3166999999998552
 30
0.0
 11
160.5
 21
555.247600000000034
 31
0.0
  0
LINE
  5
465
  8
0
 10
160.5
 20
555.247600000000034
 30
0.0
 11
107.0390000000000015
 21
509.102999999999895
 31
0.0
  0
LINE
  5
466
  8
0
 10
107.0390000000000015
 20
509.102999999999895
 30
0.0
 11
53.5469000000000008
 21
462.1875
 31
0.0
  0
LINE
  5
467
  8
0
 10
53.5469000000000008
 20
462.1875
 30
0.0
 11
0.0
 21
413.9173000000000116
 31
0.0
  0
LINE
  5
468
  8
0
 10
160.8930000000000007
 20
641.4285999999998467
 30
0.0
 11
107.3700000000000045
 21
599.1427999999998519
 31
0.0
  0
LINE
  5
469
  8
0
 10
107.3700000000000045
 20
599.1427999999998519
 30
0.0
 11
53.6544999999999987
 21
554.5723000000000411
 31
0.0
  0
LINE
  5
46A
  8
0
 10
53.6544999999999987
 20
554.5723000000000411
 30
0.0
 11
0.0
 21
509.1385000000000218
 31
0.0
  0
LINE
  5
46B
  8
0
 10
107.632000000000005
 20
681.5359999999999445
 30
0.0
 11
53.8081000000000031
 21
641.1959000000000515
 31
0.0
  0
LINE
  5
46C
  8
0
 10
53.8081000000000031
 20
641.1959000000000515
 30
0.0
 11
0.0
 21
598.3618999999999915
 31
0.0
  0
LINE
  5
46D
  8
0
 10
485.7409999999998718
 20
485.7409999999998718
 30
0.0
 11
366.7090000000000032
 21
463.7199999999999136
 31
0.0
  0
LINE
  5
46E
  8
0
 10
557.3659999999999854
 20
557.3655999999998585
 30
0.0
 11
430.7900000000000205
 21
537.3908999999999878
 31
0.0
  0
LINE
  5
46F
  8
0
 10
631.1539999999998827
 20
631.1541999999999462
 30
0.0
 11
496.76400000000001
 21
613.4962999999999056
 31
0.0
  0
LINE
  5
470
  8
0
 10
707.1069999999998572
 20
707.1069999999998572
 30
0.0
 11
565.6319999999999482
 21
692.0361999999998943
 31
0.0
  0
LINE
  5
471
  8
0
 10
634.3930000000000291
 20
773.0104999999999791
 30
0.0
 11
493.4350000000000023
 21
747.202199999999948
 31
0.0
  0
LINE
  5
472
  8
0
 10
493.4350000000000023
 20
747.202199999999948
 30
0.0
 11
365.7180000000000177
 21
712.7974000000000387
 31
0.0
  0
LINE
  5
473
  8
0
 10
365.7180000000000177
 20
712.7974000000000387
 30
0.0
 11
254.2160000000000082
 21
675.5884999999999536
 31
0.0
  0
LINE
  5
474
  8
0
 10
254.2160000000000082
 20
675.5884999999999536
 30
0.0
 11
160.8930000000000007
 21
641.4285999999998467
 31
0.0
  0
LINE
  5
475
  8
0
 10
565.6319999999999482
 20
692.0361999999998943
 30
0.0
 11
432.9229999999998881
 21
665.6398000000000366
 31
0.0
  0
LINE
  5
476
  8
0
 10
432.9229999999998881
 20
665.6398000000000366
 30
0.0
 11
314.9069999999999823
 21
632.6986000000000558
 31
0.0
  0
LINE
  5
477
  8
0
 10
314.9069999999999823
 20
632.6986000000000558
 30
0.0
 11
213.5579999999999927
 21
599.3166999999998552
 31
0.0
  0
LINE
  5
478
  8
0
 10
496.76400000000001
 20
613.4962999999999056
 30
0.0
 11
374.0339999999999918
 21
586.7822999999998501
 31
0.0
  0
LINE
  5
479
  8
0
 10
374.0339999999999918
 20
586.7822999999998501
 30
0.0
 11
265.4499999999999886
 21
555.5751999999999953
 31
0.0
  0
LINE
  5
47A
  8
0
 10
430.7900000000000205
 20
537.3908999999999878
 30
0.0
 11
316.7669999999999959
 21
510.6297999999998751
 31
0.0
  0
LINE
  5
47B
  8
0
 10
555.57000000000005
 20
831.4695999999999003
 30
0.0
 11
417.880999999999915
 21
795.871599999999944
 31
0.0
  0
LINE
  5
47C
  8
0
 10
417.880999999999915
 20
795.871599999999944
 30
0.0
 11
295.9569999999999936
 21
755.1061999999999443
 31
0.0
  0
LINE
  5
47D
  8
0
 10
295.9569999999999936
 20
755.1061999999999443
 30
0.0
 11
192.0229999999999961
 21
715.0319999999999254
 31
0.0
  0
LINE
  5
47E
  8
0
 10
192.0229999999999961
 20
715.0319999999999254
 30
0.0
 11
107.632000000000005
 21
681.5359999999999445
 31
0.0
  0
LINE
  5
47F
  8
0
 10
471.3969999999998777
 20
881.9212999999998601
 30
0.0
 11
338.7789999999999964
 21
837.8699000000001433
 31
0.0
  0
LINE
  5
480
  8
0
 10
338.7789999999999964
 20
837.8699000000001433
 30
0.0
 11
223.9660000000000082
 21
792.1516000000000304
 31
0.0
  0
LINE
  5
481
  8
0
 10
223.9660000000000082
 20
792.1516000000000304
 30
0.0
 11
128.6850000000000023
 21
750.6679000000000315
 31
0.0
  0
LINE
  5
482
  8
0
 10
128.6850000000000023
 20
750.6679000000000315
 30
0.0
 11
54.033299999999997
 21
720.5027000000000044
 31
0.0
  0
LINE
  5
483
  8
0
 10
54.033299999999997
 20
720.5027000000000044
 30
0.0
 11
0.0
 21
682.2006999999999834
 31
0.0
  0
LINE
  5
484
  8
0
 10
382.6830000000001064
 20
923.8794999999998936
 30
0.0
 11
256.7189999999999941
 21
872.7877999999999474
 31
0.0
  0
LINE
  5
485
  8
0
 10
256.7189999999999941
 20
872.7877999999999474
 30
0.0
 11
150.2789999999999964
 21
823.5867999999999256
 31
0.0
  0
LINE
  5
486
  8
0
 10
150.2789999999999964
 20
823.5867999999999256
 30
0.0
 11
64.623500000000007
 21
783.087099999999964
 31
0.0
  0
LINE
  5
487
  8
0
 10
290.285000000000025
 20
956.9402999999998656
 30
0.0
 11
172.4139999999999873
 21
900.2925999999999931
 31
0.0
  0
LINE
  5
488
  8
0
 10
172.4139999999999873
 20
900.2925999999999931
 30
0.0
 11
75.4842000000000013
 21
849.7288999999999533
 31
0.0
  0
LINE
  5
489
  8
0
 10
195.0900000000000034
 20
980.7852999999998929
 30
0.0
 11
86.615399999999994
 21
920.4280999999998585
 31
0.0
  0
ENDSEC
  0
EOF
